<svg width="14" height="14" viewBox="0 0 14 14" fill="none" xmlns="http://www.w3.org/2000/svg">
  <path
    d="M10 0.893262C11.0055 1.47383 11.842 2.30695 12.4265 3.31013C13.0111 4.31331 13.3236 5.45178 13.333 6.61282C13.3423 7.77387 13.0483 8.91723 12.48 9.92973C11.9117 10.9422 11.0888 11.7887 10.0928 12.3855C9.09683 12.9822 7.96224 13.3085 6.8014 13.332C5.64055 13.3555 4.4937 13.0754 3.47437 12.5194C2.45504 11.9635 1.59858 11.1509 0.989778 10.1623C0.380975 9.1736 0.0409395 8.04307 0.00333341 6.8826L0 6.66659L0.00333341 6.45059C0.0406688 5.29926 0.375698 4.17724 0.97576 3.19392C1.57582 2.21061 2.42044 1.39956 3.42726 0.83985C4.43409 0.280137 5.56876 -0.00914052 6.72067 0.000220164C7.87258 0.00958085 9.0024 0.31726 10 0.893262ZM6.66667 2.66659C6.50338 2.66662 6.34577 2.72657 6.22375 2.83507C6.10173 2.94358 6.02377 3.09309 6.00467 3.25526L6 3.33326V6.66659L6.006 6.75393C6.0212 6.86959 6.06649 6.97925 6.13733 7.07193L6.19533 7.1386L8.19533 9.1386L8.258 9.19326C8.37492 9.28397 8.51869 9.33321 8.66667 9.33321C8.81464 9.33321 8.95842 9.28397 9.07533 9.19326L9.138 9.13793L9.19333 9.07526C9.28404 8.95835 9.33328 8.81457 9.33328 8.6666C9.33328 8.51862 9.28404 8.37484 9.19333 8.25793L9.138 8.19526L7.33333 6.38993V3.33326L7.32867 3.25526C7.30956 3.09309 7.2316 2.94358 7.10958 2.83507C6.98756 2.72657 6.82996 2.66662 6.66667 2.66659Z"
    fill="white" />
</svg>