<svg width="21" height="16" viewBox="0 0 21 16" fill="none" xmlns="http://www.w3.org/2000/svg">
  <g clip-path="url(#clip0_7_246)">
    <path
      d="M19.5797 0.5H1.57971C1.3808 0.5 1.19003 0.579018 1.04938 0.71967C0.90873 0.860322 0.829712 1.05109 0.829712 1.25V14C0.829712 14.3978 0.987747 14.7794 1.26905 15.0607C1.55036 15.342 1.93189 15.5 2.32971 15.5H18.8297C19.2275 15.5 19.6091 15.342 19.8904 15.0607C20.1717 14.7794 20.3297 14.3978 20.3297 14V1.25C20.3297 1.05109 20.2507 0.860322 20.11 0.71967C19.9694 0.579018 19.7786 0.5 19.5797 0.5ZM7.83377 8L2.32971 13.0447V2.95531L7.83377 8ZM8.94377 9.01719L10.0688 10.0531C10.2071 10.1801 10.3881 10.2506 10.576 10.2506C10.7638 10.2506 10.9448 10.1801 11.0831 10.0531L12.2081 9.01719L17.6456 14H3.50815L8.94377 9.01719ZM13.3256 8L18.8297 2.95438V13.0456L13.3256 8Z"
      fill="white" />
  </g>
  <defs>
    <clipPath id="clip0_7_246">
      <rect width="21" height="16" fill="white" />
    </clipPath>
  </defs>
</svg>