<svg width="15" height="15" viewBox="0 0 15 15" fill="none" xmlns="http://www.w3.org/2000/svg">
  <path
    d="M9.02035 1.04461C9.04071 0.96846 9.07589 0.89707 9.12385 0.83452C9.17182 0.77198 9.23164 0.71949 9.2999 0.68007C9.36815 0.64065 9.44351 0.61506 9.52166 0.60477C9.59981 0.59448 9.67919 0.59969 9.75539 0.6201C10.8677 0.91032 11.8825 1.4918 12.6954 2.30465C13.5082 3.1175 14.0897 4.13234 14.3799 5.24465C14.4003 5.32078 14.4055 5.40019 14.3952 5.47834C14.385 5.55649 14.3594 5.63185 14.3199 5.70011C14.2805 5.76836 14.228 5.82819 14.1655 5.87615C14.1029 5.92412 14.0316 5.95929 13.9554 5.97966C13.9047 5.99297 13.8526 5.99977 13.8002 5.99991C13.668 5.99995 13.5396 5.95638 13.4348 5.87596C13.3299 5.79554 13.2546 5.68277 13.2204 5.55515C12.9838 4.647 12.5093 3.81837 11.8458 3.15471C11.1822 2.49105 10.3537 2.01637 9.4456 1.77962C9.36939 1.75933 9.29792 1.72422 9.23529 1.67628C9.17265 1.62835 9.12009 1.56854 9.08059 1.50028C9.04109 1.43201 9.01544 1.35663 9.0051 1.27844C8.99477 1.20025 8.99995 1.12079 9.02035 1.04461ZM8.84559 4.17964C9.87989 4.45564 10.5444 5.1209 10.8204 6.15516C10.8546 6.28278 10.9299 6.39555 11.0347 6.47597C11.1396 6.55638 11.268 6.59995 11.4001 6.59991C11.4525 6.59978 11.5047 6.59297 11.5554 6.57966C11.6315 6.5593 11.7029 6.52412 11.7655 6.47616C11.828 6.42819 11.8805 6.36837 11.9199 6.30011C11.9593 6.23186 11.9849 6.1565 11.9952 6.07835C12.0055 6.0002 12.0003 5.92079 11.9799 5.84465C11.5959 4.40764 10.5924 3.40413 9.15535 3.02013C9.00159 2.97905 8.83781 3.00074 8.70004 3.08042C8.56227 3.1601 8.46179 3.29125 8.42071 3.44501C8.37964 3.59877 8.40133 3.76255 8.48101 3.90032C8.56069 4.03809 8.69183 4.13856 8.84559 4.17964ZM14.2779 10.0844L10.7446 8.50118L10.7349 8.49668C10.5514 8.41823 10.3514 8.38674 10.1527 8.40508C9.95399 8.42341 9.76309 8.49098 9.5971 8.60168C9.57756 8.61459 9.55878 8.62861 9.54085 8.64368L7.71533 10.1999C6.55882 9.6382 5.36481 8.45318 4.80306 7.31167L6.36157 5.4584C6.37657 5.43965 6.39082 5.4209 6.40432 5.40065C6.51264 5.23513 6.57836 5.04539 6.59564 4.84832C6.61291 4.65126 6.5812 4.45298 6.50332 4.27114V4.26214L4.91556 0.72286C4.81261 0.485302 4.6356 0.287412 4.41094 0.158729C4.18629 0.0300451 3.92604 -0.0225309 3.66904 0.00884805C2.65276 0.14258 1.71991 0.64168 1.04472 1.41293C0.369526 2.18419 -0.00183121 3.17485 6.7902e-06 4.19989C6.7902e-06 10.1549 4.84506 15 10.8001 15C11.8252 15.0018 12.8158 14.6305 13.5871 13.9553C14.3583 13.2801 14.8574 12.3472 14.9912 11.331C15.0226 11.0741 14.9701 10.8139 14.8416 10.5892C14.713 10.3646 14.5153 10.1875 14.2779 10.0844Z"
    fill="white" />
</svg>