<svg width="113" height="166" viewBox="0 0 113 166" fill="none" xmlns="http://www.w3.org/2000/svg">
<g clip-path="url(#clip0_76_235)">
<path d="M23.4487 62.877C23.4487 62.877 10.4356 65.682 12.3215 76.4924C12.4787 76.4924 23.4487 75.9251 23.4487 62.877Z" fill="white"/>
<path d="M7.95243 72.0166C7.95243 72.0166 11.0957 72.8045 11.5357 79.3286C11.5357 79.3286 17.2879 74.8217 20.1797 75.6726C20.1797 75.6726 21.0912 84.4975 8.73825 86.0733C8.73825 86.0418 1.79165 80.7469 7.95243 72.0166Z" fill="white"/>
<path d="M1.79163 80.6523C1.79163 80.6523 7.51235 84.2453 7.16659 89.1935C7.16659 89.1935 11.8815 84.6866 15.0247 86.0418C15.0247 86.0418 14.679 94.8351 7.16659 95.1818C-0.34579 95.5285 1.79163 80.6523 1.79163 80.6523Z" fill="white"/>
<path d="M0.22004 94.2686C1.76575 94.4545 3.22053 95.1002 4.39698 96.1225C5.57343 97.1449 6.41764 98.497 6.82087 100.005C7.15292 98.455 7.98031 97.0563 9.17733 96.021C10.3743 94.9857 11.8756 94.3704 13.4531 94.2686C13.9568 96.3941 13.8359 98.6203 13.1052 100.678C12.3746 102.737 11.0653 104.539 9.33548 105.867C9.33548 105.867 -1.66591 105.646 0.25148 95.1826" fill="white"/>
<path d="M2.57744 105.867C2.57744 105.867 9.17828 106.75 11.3157 110.154C11.3157 110.154 12.2272 101.486 14.2389 101.014C14.2389 101.014 20.3054 105.741 16.3763 116.457C16.3763 116.457 1.10012 115.953 2.57744 105.867Z" fill="white"/>
<path d="M5.37494 119.293C9.45636 118.641 13.6151 118.641 17.6965 119.293C17.6965 119.293 18.388 110.531 20.8398 109.838C23.2915 109.145 27.1263 122.792 25.4603 126.164C23.7944 129.536 7.38662 124.998 5.37494 119.293Z" fill="white"/>
<path d="M30.741 128.15C30.741 128.15 25.8061 123.548 27.1577 118.694C27.1577 118.694 44.0056 120.302 39.9508 130.104C39.9508 130.104 38.8192 136.407 17.1622 132.026C21.0079 129.002 25.8832 127.61 30.741 128.15Z" fill="white"/>
<path d="M89.5199 62.8145C89.5199 62.8145 102.533 65.651 100.647 76.4299C100.647 76.4299 89.5199 75.8941 89.5199 62.8145Z" fill="white"/>
<path d="M105.016 72.0166C105.016 72.0166 101.873 72.8045 101.433 79.3286C101.433 79.3286 95.6807 74.8217 92.7889 75.6726C92.7889 75.6726 91.8773 84.4975 104.23 86.0733C104.23 86.0103 111.177 80.7154 105.016 72.0166Z" fill="white"/>
<path d="M111.177 80.5898C111.177 80.5898 105.456 84.2143 105.802 89.1626C105.802 89.1626 101.087 84.6556 97.9438 86.0108C97.9438 86.0108 98.2896 94.8042 105.802 95.1193C113.314 95.4345 111.177 80.5898 111.177 80.5898Z" fill="white"/>
<path d="M112.749 94.2363C111.203 94.4222 109.748 95.0679 108.572 96.0903C107.395 97.1126 106.551 98.4648 106.148 99.9725C105.82 98.4204 104.995 97.0188 103.797 95.9827C102.598 94.9465 101.095 94.3331 99.5154 94.2363C99.0118 96.3618 99.1326 98.588 99.8633 100.646C100.594 102.704 101.903 104.506 103.633 105.835C103.633 105.835 114.634 105.614 112.717 95.1188" fill="white"/>
<path d="M110.391 105.835C110.391 105.835 103.79 106.718 101.653 110.09C101.653 110.09 100.741 101.423 98.7296 100.981C98.7296 100.981 92.6631 105.709 96.5922 116.393C96.5922 116.393 111.868 115.889 110.391 105.835Z" fill="white"/>
<path d="M107.594 119.293C103.512 118.641 99.3535 118.641 95.2721 119.293C95.2721 119.293 94.5805 110.531 92.1288 109.838C89.6771 109.145 85.8423 122.76 87.5082 126.133C89.1741 129.505 105.582 124.966 107.594 119.293Z" fill="white"/>
<path d="M82.2276 128.118C82.2276 128.118 87.1625 123.485 85.8109 118.474C85.8109 118.474 68.963 120.113 73.0178 129.914C73.0178 129.914 74.1494 136.218 95.8064 131.837C91.9374 128.868 87.0644 127.534 82.2276 128.118Z" fill="white"/>
<path d="M43.9112 140.094H49.0662C49.0662 140.094 48.4375 135.052 56.7043 135.43C64.971 135.808 64.1223 137.951 64.3738 139.842H69.6859L69.2144 136.691C69.2144 136.691 88.074 142.994 90.62 134.737C90.62 134.737 67.8629 133.287 62.4879 130.104H51.2979C51.2979 130.104 30.0809 135.745 22.82 134.484C22.82 134.484 23.2601 143.089 44.2884 136.848L43.9112 140.094Z" fill="white"/>
<path d="M40.768 68.2035C40.768 68.2035 13.3588 108.388 59.2503 130.387C59.2503 130.387 91.0601 109.901 76.7583 68.2035C62.4564 26.5061 54.0954 10.8104 55.1012 0C55.1012 0 33.0985 33.6605 46.5202 65.2093C59.9419 96.7582 63.588 104.511 59.0932 117.843C58.0621 109.196 54.6438 101.01 49.2234 94.2053C43.7019 86.6689 40.7381 77.5548 40.768 68.2035Z" fill="white"/>
<path d="M24.486 164.678V143.656H33.9157C40.5166 143.656 45.42 147.438 45.42 154.151C45.42 160.865 40.5166 164.678 33.9472 164.678H24.486ZM30.7725 159.131H33.9157C34.5804 159.162 35.2442 159.055 35.8657 158.816C36.4872 158.578 37.0531 158.214 37.528 157.747C38.0029 157.28 38.3766 156.719 38.6258 156.101C38.875 155.482 38.9943 154.818 38.9764 154.151C39.0303 153.48 38.9365 152.804 38.7014 152.173C38.4664 151.542 38.0959 150.97 37.6162 150.498C37.1365 150.026 36.5592 149.665 35.9252 149.441C35.2912 149.218 34.616 149.136 33.9472 149.203H30.8039L30.7725 159.131Z" fill="white"/>
<path d="M47.5574 143.656H53.8439V155.822C53.9282 156.729 54.3471 157.572 55.0186 158.185C55.6901 158.799 56.5659 159.139 57.4744 159.139C58.3828 159.139 59.2586 158.799 59.9301 158.185C60.6016 157.572 61.0205 156.729 61.1048 155.822V143.656H67.3913V156.011C67.3913 161.243 64.4052 165.056 57.3329 165.056C50.2606 165.056 47.243 161.243 47.243 156.043L47.5574 143.656Z" fill="white"/>
<path d="M72.672 157.114C74.4927 158.856 76.9134 159.827 79.43 159.825C80.6245 159.825 81.756 159.415 81.756 158.595C81.756 157.776 80.8759 157.366 78.8014 156.988C75.3438 156.358 70.0631 155.538 70.0631 150.275C70.0631 146.713 73.0178 143.467 78.7699 143.467C81.976 143.371 85.1136 144.409 87.6339 146.398L84.2392 150.811C82.5573 149.54 80.5285 148.814 78.4242 148.73C76.8525 148.73 76.5068 149.298 76.5068 149.834C76.5068 150.369 77.3554 150.937 79.65 151.315C83.1076 151.914 88.1997 152.922 88.1997 157.618C88.1997 162.314 84.805 164.93 79.1786 164.93C75.6223 165.119 72.1308 163.922 69.4344 161.589L72.672 157.114Z" fill="white"/>
</g>
<defs>
<clipPath id="clip0_76_235">
<rect width="113" height="165.056" fill="white"/>
</clipPath>
</defs>
</svg>
